<?xml version="1.0" standalone="no"?><!-- Created with ZXing.Net (http://zxingnet.codeplex.com/) --><!DOCTYPE svg PUBLIC "-//W3C//DTD SVG 1.1//EN" "http://www.w3.org/Graphics/SVG/1.1/DTD/svg11.dtd"><svg xmlns="http://www.w3.org/2000/svg" version="1.2" baseProfile="tiny" shape-rendering="crispEdges" viewBox="0 0 999 999" viewport-fill="rgb(242,242,242)" viewport-fill-opacity="0" fill="rgb(0,0,0)" fill-opacity="1" style="background-color:rgb(242,242,242);background-color:rgba(242, 242, 242, 0);">
<defs>
  <mask id="logo-mask">
    <rect width="999" height="999" fill="white"/>
    <rect x="405" y="405" width="189" height="189" fill="black"/>
  </mask>
</defs>
<g mask="url(#logo-mask)"><rect x="54" y="54" width="27" height="189"/><rect x="54" y="270" width="27" height="27"/><rect x="54" y="324" width="54" height="81"/><rect x="54" y="513" width="54" height="27"/><rect x="54" y="621" width="27" height="108"/><rect x="54" y="756" width="27" height="189"/><rect x="81" y="54" width="162" height="27"/><rect x="81" y="216" width="162" height="27"/><rect x="81" y="486" width="27" height="54"/><rect x="81" y="621" width="54" height="27"/><rect x="81" y="756" width="162" height="27"/><rect x="81" y="918" width="162" height="27"/><rect x="108" y="108" width="81" height="81"/><rect x="108" y="270" width="27" height="81"/><rect x="108" y="405" width="108" height="27"/><rect x="108" y="540" width="27" height="54"/><rect x="108" y="675" width="27" height="54"/><rect x="108" y="810" width="81" height="81"/><rect x="135" y="270" width="108" height="27"/><rect x="135" y="351" width="27" height="108"/><rect x="135" y="540" width="27" height="27"/><rect x="135" y="648" width="54" height="54"/><rect x="162" y="297" width="27" height="81"/><rect x="162" y="459" width="27" height="27"/><rect x="162" y="567" width="54" height="27"/><rect x="189" y="324" width="27" height="54"/><rect x="189" y="432" width="108" height="27"/><rect x="189" y="540" width="27" height="108"/><rect x="189" y="702" width="81" height="27"/><rect x="216" y="81" width="27" height="162"/><rect x="216" y="324" width="54" height="27"/><rect x="216" y="378" width="108" height="27"/><rect x="216" y="486" width="27" height="27"/><rect x="216" y="540" width="135" height="27"/><rect x="216" y="594" width="81" height="27"/><rect x="216" y="648" width="27" height="27"/><rect x="216" y="783" width="27" height="162"/><rect x="243" y="297" width="27" height="54"/><rect x="243" y="405" width="27" height="81"/><rect x="243" y="513" width="27" height="54"/><rect x="243" y="621" width="108" height="27"/><rect x="243" y="675" width="27" height="54"/><rect x="270" y="108" width="27" height="162"/><rect x="270" y="405" width="27" height="54"/><rect x="270" y="486" width="27" height="27"/><rect x="270" y="567" width="27" height="108"/><rect x="270" y="729" width="27" height="27"/><rect x="270" y="783" width="27" height="108"/><rect x="270" y="918" width="54" height="27"/><rect x="297" y="54" width="81" height="27"/><rect x="297" y="162" width="81" height="27"/><rect x="297" y="297" width="27" height="54"/><rect x="297" y="459" width="54" height="27"/><rect x="297" y="567" width="81" height="27"/><rect x="297" y="675" width="54" height="54"/><rect x="297" y="783" width="81" height="27"/><rect x="324" y="81" width="27" height="54"/><rect x="324" y="189" width="27" height="81"/><rect x="324" y="405" width="27" height="27"/><rect x="324" y="486" width="27" height="27"/><rect x="324" y="594" width="27" height="135"/><rect x="324" y="756" width="27" height="54"/><rect x="324" y="864" width="189" height="27"/><rect x="351" y="81" width="27" height="27"/><rect x="351" y="189" width="27" height="27"/><rect x="351" y="243" width="27" height="81"/><rect x="351" y="351" width="27" height="54"/><rect x="351" y="432" width="27" height="27"/><rect x="351" y="513" width="54" height="27"/><rect x="351" y="648" width="27" height="27"/><rect x="351" y="810" width="27" height="81"/><rect x="378" y="135" width="27" height="27"/><rect x="378" y="216" width="27" height="27"/><rect x="378" y="324" width="162" height="27"/><rect x="378" y="405" width="54" height="27"/><rect x="378" y="459" width="27" height="81"/><rect x="378" y="594" width="54" height="27"/><rect x="378" y="675" width="27" height="54"/><rect x="378" y="891" width="54" height="27"/><rect x="405" y="189" width="54" height="27"/><rect x="405" y="270" width="27" height="108"/><rect x="405" y="432" width="27" height="54"/><rect x="405" y="567" width="27" height="81"/><rect x="405" y="702" width="27" height="216"/><rect x="432" y="108" width="81" height="27"/><rect x="432" y="162" width="27" height="81"/><rect x="432" y="270" width="27" height="81"/><rect x="432" y="378" width="81" height="27"/><rect x="432" y="432" width="135" height="27"/><rect x="432" y="486" width="27" height="54"/><rect x="432" y="567" width="54" height="27"/><rect x="432" y="621" width="27" height="54"/><rect x="432" y="837" width="54" height="54"/><rect x="432" y="918" width="54" height="27"/><rect x="459" y="81" width="27" height="54"/><rect x="459" y="162" width="81" height="27"/><rect x="459" y="351" width="27" height="162"/><rect x="459" y="540" width="27" height="54"/><rect x="459" y="621" width="81" height="27"/><rect x="459" y="756" width="81" height="27"/><rect x="459" y="891" width="27" height="54"/><rect x="486" y="54" width="27" height="27"/><rect x="486" y="216" width="27" height="54"/><rect x="486" y="297" width="54" height="54"/><rect x="486" y="513" width="27" height="27"/><rect x="486" y="675" width="27" height="27"/><rect x="486" y="729" width="27" height="108"/><rect x="513" y="189" width="27" height="27"/><rect x="513" y="270" width="27" height="108"/><rect x="513" y="486" width="27" height="27"/><rect x="513" y="648" width="27" height="27"/><rect x="513" y="702" width="27" height="108"/><rect x="513" y="837" width="54" height="27"/><rect x="513" y="918" width="54" height="27"/><rect x="540" y="54" width="27" height="54"/><rect x="540" y="135" width="54" height="27"/><rect x="540" y="216" width="27" height="54"/><rect x="540" y="297" width="81" height="27"/><rect x="540" y="351" width="27" height="27"/><rect x="540" y="405" width="27" height="54"/><rect x="540" y="513" width="27" height="54"/><rect x="540" y="594" width="27" height="27"/><rect x="540" y="729" width="81" height="27"/><rect x="540" y="783" width="81" height="27"/><rect x="567" y="54" width="27" height="27"/><rect x="567" y="189" width="27" height="27"/><rect x="567" y="243" width="27" height="81"/><rect x="567" y="513" width="243" height="27"/><rect x="567" y="567" width="27" height="27"/><rect x="567" y="648" width="27" height="108"/><rect x="594" y="81" width="54" height="54"/><rect x="594" y="162" width="27" height="27"/><rect x="594" y="216" width="27" height="54"/><rect x="594" y="324" width="27" height="27"/><rect x="594" y="378" width="162" height="27"/><rect x="594" y="432" width="27" height="27"/><rect x="594" y="621" width="189" height="27"/><rect x="594" y="675" width="27" height="162"/><rect x="594" y="864" width="54" height="27"/><rect x="621" y="54" width="27" height="108"/><rect x="621" y="243" width="27" height="27"/><rect x="621" y="405" width="27" height="27"/><rect x="621" y="459" width="81" height="27"/><rect x="621" y="540" width="27" height="162"/><rect x="621" y="810" width="27" height="108"/><rect x="648" y="108" width="27" height="27"/><rect x="648" y="162" width="27" height="81"/><rect x="648" y="270" width="27" height="81"/><rect x="648" y="486" width="108" height="54"/><rect x="648" y="567" width="54" height="27"/><rect x="648" y="648" width="27" height="27"/><rect x="648" y="702" width="27" height="27"/><rect x="648" y="756" width="81" height="27"/><rect x="648" y="810" width="27" height="27"/><rect x="648" y="891" width="27" height="54"/><rect x="675" y="54" width="27" height="27"/><rect x="675" y="135" width="54" height="27"/><rect x="675" y="189" width="54" height="27"/><rect x="675" y="243" width="27" height="81"/><rect x="675" y="351" width="27" height="54"/><rect x="675" y="729" width="54" height="81"/><rect x="675" y="837" width="27" height="54"/><rect x="675" y="918" width="54" height="27"/><rect x="702" y="108" width="27" height="54"/><rect x="702" y="216" width="27" height="27"/><rect x="702" y="270" width="27" height="27"/><rect x="702" y="324" width="27" height="27"/><rect x="702" y="405" width="81" height="27"/><rect x="702" y="594" width="54" height="54"/><rect x="702" y="702" width="27" height="135"/><rect x="702" y="864" width="108" height="27"/><rect x="729" y="351" width="27" height="216"/><rect x="729" y="648" width="27" height="81"/><rect x="729" y="810" width="27" height="81"/><rect x="756" y="54" width="27" height="189"/><rect x="756" y="270" width="54" height="54"/><rect x="756" y="432" width="27" height="54"/><rect x="756" y="675" width="108" height="54"/><rect x="756" y="756" width="27" height="27"/><rect x="756" y="810" width="108" height="27"/><rect x="756" y="918" width="54" height="27"/><rect x="783" y="54" width="162" height="27"/><rect x="783" y="216" width="162" height="27"/><rect x="783" y="378" width="81" height="27"/><rect x="783" y="486" width="27" height="135"/><rect x="783" y="648" width="27" height="81"/><rect x="810" y="108" width="81" height="81"/><rect x="810" y="270" width="81" height="27"/><rect x="810" y="324" width="27" height="81"/><rect x="810" y="486" width="27" height="27"/><rect x="810" y="540" width="27" height="81"/><rect x="810" y="729" width="27" height="135"/><rect x="810" y="891" width="81" height="27"/><rect x="837" y="297" width="54" height="27"/><rect x="837" y="351" width="27" height="54"/><rect x="837" y="432" width="27" height="54"/><rect x="837" y="513" width="54" height="27"/><rect x="837" y="567" width="27" height="54"/><rect x="837" y="648" width="27" height="81"/><rect x="837" y="783" width="27" height="81"/><rect x="864" y="324" width="54" height="54"/><rect x="864" y="405" width="81" height="27"/><rect x="864" y="459" width="27" height="27"/><rect x="864" y="540" width="27" height="54"/><rect x="864" y="675" width="81" height="27"/><rect x="864" y="729" width="27" height="81"/><rect x="864" y="837" width="27" height="81"/><rect x="891" y="432" width="27" height="27"/><rect x="891" y="540" width="27" height="27"/><rect x="891" y="648" width="27" height="54"/><rect x="891" y="729" width="27" height="54"/><rect x="891" y="810" width="27" height="27"/><rect x="891" y="918" width="27" height="27"/><rect x="918" y="81" width="27" height="162"/><rect x="918" y="297" width="27" height="27"/><rect x="918" y="378" width="27" height="54"/><rect x="918" y="486" width="27" height="54"/><rect x="918" y="567" width="27" height="27"/><rect x="918" y="621" width="27" height="27"/><rect x="918" y="702" width="27" height="54"/><rect x="918" y="837" width="27" height="27"/></g>

  <!-- Logo punchout background -->
  <rect x="405" y="405" width="189" height="189" fill="rgba(242,242,242,0.000)"/>
  <!-- Logo SVG (inlined) -->
  <svg x="409" y="409" width="181" height="181" viewBox="0 0 32 32" preserveAspectRatio="xMidYMid meet" overflow="visible">
    
<g>
<path d="M22.3,8.4c-0.8,0-1.4,0.6-1.4,1.4c0,0.8,0.6,1.4,1.4,1.4c0.8,0,1.4-0.6,1.4-1.4C23.7,9,23.1,8.4,22.3,8.4z"/>
<path d="M16,10.2c-3.3,0-5.9,2.7-5.9,5.9s2.7,5.9,5.9,5.9s5.9-2.7,5.9-5.9S19.3,10.2,16,10.2z M16,19.9c-2.1,0-3.8-1.7-3.8-3.8   c0-2.1,1.7-3.8,3.8-3.8c2.1,0,3.8,1.7,3.8,3.8C19.8,18.2,18.1,19.9,16,19.9z"/>
<path d="M20.8,4h-9.5C7.2,4,4,7.2,4,11.2v9.5c0,4,3.2,7.2,7.2,7.2h9.5c4,0,7.2-3.2,7.2-7.2v-9.5C28,7.2,24.8,4,20.8,4z M25.7,20.8   c0,2.7-2.2,5-5,5h-9.5c-2.7,0-5-2.2-5-5v-9.5c0-2.7,2.2-5,5-5h9.5c2.7,0,5,2.2,5,5V20.8z"/>
</g>

  </svg>
</svg>